# xmcd CD database file
#
# Track frame offsets:
#	150
#	19769
#	45501
#	65165
#	80637
#	101147
#	116696
#	137602
#	155931
#	175895
#	194105
#
# Disc length: 2654 seconds
#
# Revision: 0
# Processed by: cddbd v1.5.2PL0 Copyright (c) Steve Scherf et al.
# Submitted via: CDex 1.51
#
DISCID=a30a5c0b
DTITLE=ÃÖÄ¡¿ì - Chiwoo Choi
DYEAR=2008
DGENRE=Jazz
TTITLE0=Summertime
TTITLE1=Take Five
TTITLE2=Over The Rainbow
TTITLE3=Fly me to the moon
TTITLE4=Tequila
TTITLE5=All of me
TTITLE6=St. Thomas
TTITLE7=Autumn Leaves
TTITLE8=Manteca
TTITLE9=Aqua de bebber
TTITLE10=Woo! ah!
EXTD=YEAR: 2008
EXTT0=
EXTT1=
EXTT2=
EXTT3=
EXTT4=
EXTT5=
EXTT6=
EXTT7=
EXTT8=
EXTT9=
EXTT10=
PLAYORDER=
